<mxfile host="app.diagrams.net" modified="2024-04-28T07:13:22.411Z" agent="Mozilla/5.0 (Windows NT 10.0; Win64; x64) AppleWebKit/537.36 (KHTML, like Gecko) Chrome/124.0.0.0 Safari/537.36 Edg/124.0.0.0" etag="mGWhy6vEQEn3SRTdwfjc" version="24.3.1" type="device">
  <diagram name="第 1 页" id="u1bpT5RkqI5728BuhbUE">
    <mxGraphModel dx="556" dy="660" grid="1" gridSize="10" guides="1" tooltips="1" connect="1" arrows="1" fold="1" page="1" pageScale="1" pageWidth="827" pageHeight="1169" math="0" shadow="0">
      <root>
        <mxCell id="0" />
        <mxCell id="1" parent="0" />
        <mxCell id="mxG_wshm_Kv0WKMRpaJK-6" value="" style="group" parent="1" vertex="1" connectable="0">
          <mxGeometry x="360" y="370" width="120" height="60" as="geometry" />
        </mxCell>
        <mxCell id="mxG_wshm_Kv0WKMRpaJK-1" value="" style="rounded=1;whiteSpace=wrap;html=1;movable=0;resizable=0;rotatable=0;deletable=0;editable=0;locked=1;connectable=0;" parent="mxG_wshm_Kv0WKMRpaJK-6" vertex="1">
          <mxGeometry width="120" height="60" as="geometry" />
        </mxCell>
        <mxCell id="mxG_wshm_Kv0WKMRpaJK-3" value="" style="line;strokeWidth=1;rotatable=1;dashed=0;labelPosition=right;align=left;verticalAlign=middle;spacingTop=0;spacingLeft=6;points=[];portConstraint=eastwest;movable=1;resizable=1;deletable=1;editable=1;locked=0;connectable=1;" parent="mxG_wshm_Kv0WKMRpaJK-6" vertex="1">
          <mxGeometry y="20" width="120" height="10" as="geometry" />
        </mxCell>
        <mxCell id="mxG_wshm_Kv0WKMRpaJK-4" value="0" style="text;strokeColor=none;align=center;fillColor=none;html=1;verticalAlign=middle;whiteSpace=wrap;rounded=0;movable=0;resizable=0;rotatable=0;deletable=0;editable=0;locked=1;connectable=0;" parent="mxG_wshm_Kv0WKMRpaJK-6" vertex="1">
          <mxGeometry x="30" width="60" height="30" as="geometry" />
        </mxCell>
        <mxCell id="mxG_wshm_Kv0WKMRpaJK-5" value="校园二手集市系统" style="text;strokeColor=none;align=center;fillColor=none;html=1;verticalAlign=middle;whiteSpace=wrap;rounded=0;movable=1;resizable=1;rotatable=1;deletable=1;editable=1;locked=0;connectable=1;" parent="mxG_wshm_Kv0WKMRpaJK-6" vertex="1">
          <mxGeometry x="30" y="30" width="60" height="30" as="geometry" />
        </mxCell>
        <mxCell id="0yxAlXwtPtiqHJc5VamW-21" value="" style="endArrow=classic;html=1;rounded=0;edgeStyle=orthogonalEdgeStyle;entryX=0.75;entryY=1;entryDx=0;entryDy=0;" parent="1" target="mxG_wshm_Kv0WKMRpaJK-5" edge="1">
          <mxGeometry width="50" height="50" relative="1" as="geometry">
            <mxPoint x="690" y="512" as="sourcePoint" />
            <mxPoint x="435" y="490" as="targetPoint" />
          </mxGeometry>
        </mxCell>
        <mxCell id="0yxAlXwtPtiqHJc5VamW-18" value="管理员" style="whiteSpace=wrap;html=1;aspect=fixed;" parent="1" vertex="1">
          <mxGeometry x="660" y="372.5" width="80" height="80" as="geometry" />
        </mxCell>
        <mxCell id="0yxAlXwtPtiqHJc5VamW-19" value="" style="endArrow=classic;html=1;rounded=0;edgeStyle=orthogonalEdgeStyle;" parent="1" edge="1">
          <mxGeometry width="50" height="50" relative="1" as="geometry">
            <mxPoint x="670" y="490" as="sourcePoint" />
            <mxPoint x="460" y="430" as="targetPoint" />
          </mxGeometry>
        </mxCell>
        <mxCell id="0yxAlXwtPtiqHJc5VamW-20" value="个人账户信息" style="text;strokeColor=none;align=center;fillColor=none;html=1;verticalAlign=middle;whiteSpace=wrap;rounded=0;" parent="1" vertex="1">
          <mxGeometry x="520" y="500" width="100" height="10" as="geometry" />
        </mxCell>
        <mxCell id="0yxAlXwtPtiqHJc5VamW-22" value="售后订单处理信息" style="text;strokeColor=none;align=center;fillColor=none;html=1;verticalAlign=middle;whiteSpace=wrap;rounded=0;" parent="1" vertex="1">
          <mxGeometry x="520" y="460" width="100" height="30" as="geometry" />
        </mxCell>
        <mxCell id="0yxAlXwtPtiqHJc5VamW-25" value="申请售后服务信息" style="text;strokeColor=none;align=center;fillColor=none;html=1;verticalAlign=middle;whiteSpace=wrap;rounded=0;" parent="1" vertex="1">
          <mxGeometry x="520" y="290" width="100" height="10" as="geometry" />
        </mxCell>
        <mxCell id="0yxAlXwtPtiqHJc5VamW-32" value="" style="endArrow=none;html=1;rounded=0;entryX=0.135;entryY=1.037;entryDx=0;entryDy=0;entryPerimeter=0;" parent="1" target="0yxAlXwtPtiqHJc5VamW-18" edge="1">
          <mxGeometry width="50" height="50" relative="1" as="geometry">
            <mxPoint x="670" y="490" as="sourcePoint" />
            <mxPoint x="720" y="440" as="targetPoint" />
          </mxGeometry>
        </mxCell>
        <mxCell id="0yxAlXwtPtiqHJc5VamW-33" value="" style="endArrow=none;html=1;rounded=0;" parent="1" edge="1">
          <mxGeometry width="50" height="50" relative="1" as="geometry">
            <mxPoint x="690" y="510" as="sourcePoint" />
            <mxPoint x="690" y="452.5" as="targetPoint" />
          </mxGeometry>
        </mxCell>
        <mxCell id="0yxAlXwtPtiqHJc5VamW-34" value="" style="endArrow=classic;html=1;rounded=0;exitX=1.013;exitY=0.524;exitDx=0;exitDy=0;exitPerimeter=0;entryX=-0.018;entryY=0.155;entryDx=0;entryDy=0;entryPerimeter=0;" parent="1" target="0yxAlXwtPtiqHJc5VamW-18" edge="1">
          <mxGeometry width="50" height="50" relative="1" as="geometry">
            <mxPoint x="480.78" y="386.37" as="sourcePoint" />
            <mxPoint x="650" y="386" as="targetPoint" />
          </mxGeometry>
        </mxCell>
        <mxCell id="0yxAlXwtPtiqHJc5VamW-36" value="待出售商品信息" style="text;strokeColor=none;align=center;fillColor=none;html=1;verticalAlign=middle;whiteSpace=wrap;rounded=0;" parent="1" vertex="1">
          <mxGeometry x="540" y="360" width="90" height="20" as="geometry" />
        </mxCell>
        <mxCell id="0yxAlXwtPtiqHJc5VamW-37" value="" style="endArrow=classic;html=1;rounded=0;" parent="1" edge="1">
          <mxGeometry width="50" height="50" relative="1" as="geometry">
            <mxPoint x="660" y="420" as="sourcePoint" />
            <mxPoint x="480" y="420" as="targetPoint" />
          </mxGeometry>
        </mxCell>
        <mxCell id="0yxAlXwtPtiqHJc5VamW-38" value="商品审核结果信息" style="text;strokeColor=none;align=center;fillColor=none;html=1;verticalAlign=middle;whiteSpace=wrap;rounded=0;" parent="1" vertex="1">
          <mxGeometry x="510" y="422.5" width="110" height="17.5" as="geometry" />
        </mxCell>
        <mxCell id="0yxAlXwtPtiqHJc5VamW-2" value="" style="endArrow=classic;html=1;rounded=0;edgeStyle=orthogonalEdgeStyle;exitX=0.6;exitY=-0.005;exitDx=0;exitDy=0;exitPerimeter=0;" parent="1" edge="1" source="0yxAlXwtPtiqHJc5VamW-1">
          <mxGeometry width="50" height="50" relative="1" as="geometry">
            <mxPoint x="175" y="227.5" as="sourcePoint" />
            <mxPoint x="400" y="370" as="targetPoint" />
            <Array as="points">
              <mxPoint x="150" y="340" />
              <mxPoint x="150" y="310" />
              <mxPoint x="400" y="310" />
              <mxPoint x="400" y="370" />
            </Array>
          </mxGeometry>
        </mxCell>
        <mxCell id="0yxAlXwtPtiqHJc5VamW-1" value="学生" style="whiteSpace=wrap;html=1;aspect=fixed;" parent="1" vertex="1">
          <mxGeometry x="130" y="340" width="80" height="80" as="geometry" />
        </mxCell>
        <mxCell id="0yxAlXwtPtiqHJc5VamW-3" value="个人订单操作信息" style="text;strokeColor=none;align=center;fillColor=none;html=1;verticalAlign=middle;whiteSpace=wrap;rounded=0;" parent="1" vertex="1">
          <mxGeometry x="250" y="280" width="100" height="30" as="geometry" />
        </mxCell>
        <mxCell id="0yxAlXwtPtiqHJc5VamW-5" value="订单信息" style="text;strokeColor=none;align=center;fillColor=none;html=1;verticalAlign=middle;whiteSpace=wrap;rounded=0;" parent="1" vertex="1">
          <mxGeometry x="210" y="460" width="110" height="30" as="geometry" />
        </mxCell>
        <mxCell id="0yxAlXwtPtiqHJc5VamW-6" value="" style="endArrow=classic;html=1;rounded=0;edgeStyle=orthogonalEdgeStyle;" parent="1" edge="1" source="0yxAlXwtPtiqHJc5VamW-1">
          <mxGeometry width="50" height="50" relative="1" as="geometry">
            <mxPoint x="200" y="330" as="sourcePoint" />
            <mxPoint x="369.72" y="372.5" as="targetPoint" />
            <Array as="points">
              <mxPoint x="170" y="330" />
              <mxPoint x="370" y="330" />
            </Array>
          </mxGeometry>
        </mxCell>
        <mxCell id="0yxAlXwtPtiqHJc5VamW-7" value="个人账户信息" style="text;strokeColor=none;align=center;fillColor=none;html=1;verticalAlign=middle;whiteSpace=wrap;rounded=0;" parent="1" vertex="1">
          <mxGeometry x="250" y="330" width="80" height="30" as="geometry" />
        </mxCell>
        <mxCell id="0yxAlXwtPtiqHJc5VamW-4" value="" style="endArrow=classic;html=1;rounded=0;edgeStyle=orthogonalEdgeStyle;entryX=0.25;entryY=1;entryDx=0;entryDy=0;" parent="1" target="0yxAlXwtPtiqHJc5VamW-1" edge="1">
          <mxGeometry width="50" height="50" relative="1" as="geometry">
            <mxPoint x="370" y="430" as="sourcePoint" />
            <mxPoint x="150" y="430" as="targetPoint" />
            <Array as="points">
              <mxPoint x="150" y="490" />
            </Array>
          </mxGeometry>
        </mxCell>
        <mxCell id="VVnQue0lhO7KN5Yk7XrO-11" value="" style="endArrow=classic;html=1;rounded=0;" edge="1" parent="1">
          <mxGeometry width="50" height="50" relative="1" as="geometry">
            <mxPoint x="210" y="380" as="sourcePoint" />
            <mxPoint x="360" y="380" as="targetPoint" />
          </mxGeometry>
        </mxCell>
        <mxCell id="VVnQue0lhO7KN5Yk7XrO-14" value="待出售商品信息" style="text;html=1;align=center;verticalAlign=middle;whiteSpace=wrap;rounded=0;" vertex="1" parent="1">
          <mxGeometry x="240" y="362.5" width="90" height="15" as="geometry" />
        </mxCell>
        <mxCell id="VVnQue0lhO7KN5Yk7XrO-16" value="" style="endArrow=classic;html=1;rounded=0;edgeStyle=orthogonalEdgeStyle;entryX=0.5;entryY=1;entryDx=0;entryDy=0;" edge="1" parent="1" target="mxG_wshm_Kv0WKMRpaJK-5">
          <mxGeometry width="50" height="50" relative="1" as="geometry">
            <mxPoint x="699.71" y="452.5" as="sourcePoint" />
            <mxPoint x="400" y="570" as="targetPoint" />
            <Array as="points">
              <mxPoint x="700" y="540" />
              <mxPoint x="420" y="540" />
            </Array>
          </mxGeometry>
        </mxCell>
        <mxCell id="VVnQue0lhO7KN5Yk7XrO-18" value="出售商品限制" style="text;html=1;align=center;verticalAlign=middle;whiteSpace=wrap;rounded=0;" vertex="1" parent="1">
          <mxGeometry x="520" y="530" width="90" as="geometry" />
        </mxCell>
        <mxCell id="VVnQue0lhO7KN5Yk7XrO-22" value="" style="endArrow=classic;html=1;rounded=0;edgeStyle=orthogonalEdgeStyle;entryX=0.25;entryY=0;entryDx=0;entryDy=0;" edge="1" parent="1" target="0yxAlXwtPtiqHJc5VamW-18">
          <mxGeometry width="50" height="50" relative="1" as="geometry">
            <mxPoint x="450" y="370" as="sourcePoint" />
            <mxPoint x="780" y="310" as="targetPoint" />
            <Array as="points">
              <mxPoint x="450" y="310" />
              <mxPoint x="680" y="310" />
            </Array>
          </mxGeometry>
        </mxCell>
        <mxCell id="VVnQue0lhO7KN5Yk7XrO-25" value="" style="endArrow=classic;html=1;rounded=0;" edge="1" parent="1">
          <mxGeometry width="50" height="50" relative="1" as="geometry">
            <mxPoint x="210" y="410" as="sourcePoint" />
            <mxPoint x="360" y="410" as="targetPoint" />
          </mxGeometry>
        </mxCell>
        <mxCell id="VVnQue0lhO7KN5Yk7XrO-26" value="个人相关信息" style="text;html=1;align=center;verticalAlign=middle;whiteSpace=wrap;rounded=0;" vertex="1" parent="1">
          <mxGeometry x="240" y="415.5" width="80" height="14.5" as="geometry" />
        </mxCell>
      </root>
    </mxGraphModel>
  </diagram>
</mxfile>
